<mxfile host="app.diagrams.net" modified="2024-09-26T09:45:44.257Z" agent="Mozilla/5.0 (Macintosh; Intel Mac OS X 10_15_7) AppleWebKit/537.36 (KHTML, like Gecko) Chrome/129.0.0.0 Safari/537.36" version="24.4.8" etag="bhHAdqXYxHdEJcDaHJwD" type="github">
  <diagram name="Page-1" id="wBSJUrPqJqpeE7lEjXiG">
    <mxGraphModel>
      <root>
        <mxCell id="0" />
        <mxCell id="1" parent="0" />
      </root>
    </mxGraphModel>
  </diagram>
</mxfile>
